<svg xmlns="http://www.w3.org/2000/svg" version="1.1" x="0" y="0" width="120" height="32" viewBox="20 -8 120 32" enable-background="new 20 -8 120 32" xml:space="preserve"><path fill="#FEFEFE" d="M26.2 17h-6.1c-0.1 0-0.2 0.1-0.2 0.2 0 0 0 0.1 0 0.1l6.4 6.5c0 0 0.1 0 0.1 0 0.1 0 0.2-0.1 0.2-0.2v-6.2C26.7 17.2 26.5 17 26.2 17zM34.1 17h-5.9c-0.1 0-0.1 0.1-0.1 0.2 0 0 0 0.1 0 0.1l6.2 6.3c0 0 0.1 0 0.1 0 0.1 0 0.1-0.1 0.1-0.2v-6C34.6 17.2 34.4 17 34.1 17zM42 17h-5.9C36 17 36 17.1 36 17.2c0 0 0 0.1 0 0.1l6.2 6.3c0 0 0.1 0 0.1 0 0.1 0 0.1-0.1 0.1-0.2v-6C42.5 17.2 42.3 17 42 17zM50 17h-4.7c-0.1 0-0.1 0.1-0.1 0.1 0 0 0 0.1 0 0.1l4.9 5c0 0 0.1 0 0.1 0 0.1 0 0.1-0.1 0.1-0.1v-4.8C50.4 17.2 50.2 17 50 17zM26.3 9h-5.9c-0.1 0-0.1 0.1-0.1 0.2 0 0 0 0.1 0 0.1l6.2 6.3c0 0 0.1 0 0.1 0 0.1 0 0.1-0.1 0.1-0.2v-6C26.7 9.2 26.5 9 26.3 9zM34.1 9h-5.9c-0.1 0-0.1 0.1-0.1 0.2 0 0 0 0.1 0 0.1l6.2 6.3c0 0 0.1 0 0.1 0 0.1 0 0.1-0.1 0.1-0.2v-6C34.6 9.2 34.4 9 34.1 9zM42.1 9h-4.7c-0.1 0-0.1 0.1-0.1 0.1 0 0 0 0.1 0 0.1l4.9 5c0 0 0.1 0 0.1 0 0.1 0 0.1-0.1 0.1-0.1V9.4C42.5 9.2 42.3 9 42.1 9zM50.1 9h-4.3c-0.1 0-0.1 0-0.1 0.1 0 0 0 0.1 0 0.1l4.5 4.5c0 0 0 0 0.1 0 0.1 0 0.1 0 0.1-0.1V9.3C50.4 9.2 50.2 9 50.1 9zM26.3 1h-5.9c-0.1 0-0.1 0.1-0.1 0.2 0 0 0 0.1 0 0.1l6.2 6.3c0 0 0.1 0 0.1 0 0.1 0 0.1-0.1 0.1-0.2v-6C26.7 1.2 26.5 1 26.3 1zM34.2 1h-4.7c-0.1 0-0.1 0.1-0.1 0.1 0 0 0 0.1 0 0.1l4.9 5c0 0 0.1 0 0.1 0 0.1 0 0.1-0.1 0.1-0.1V1.3C34.6 1.1 34.4 1 34.2 1zM42.2 1h-4.3c-0.1 0-0.1 0-0.1 0.1 0 0 0 0.1 0 0.1l4.5 4.5c0 0 0 0 0.1 0 0.1 0 0.1 0 0.1-0.1V1.3C42.5 1.1 42.3 1 42.2 1zM50.1 1h-3.5c0 0-0.1 0-0.1 0.1 0 0 0 0 0 0.1l3.6 3.7c0 0 0 0 0.1 0 0 0 0.1 0 0.1-0.1V1.2C50.4 1.1 50.2 1 50.1 1zM26.3-7h-4.7c-0.1 0-0.1 0.1-0.1 0.1 0 0 0 0.1 0 0.1l4.9 5c0 0 0.1 0 0.1 0 0.1 0 0.1-0.1 0.1-0.1v-4.8C26.7-6.9 26.5-7 26.3-7zM34.3-7H30c-0.1 0-0.1 0-0.1 0.1 0 0 0 0.1 0 0.1l4.5 4.5c0 0 0 0 0.1 0 0.1 0 0.1 0 0.1-0.1v-4.3C34.6-6.9 34.4-7 34.3-7zM42.2-7h-3.5c0 0-0.1 0-0.1 0.1 0 0 0 0 0 0.1l3.6 3.7c0 0 0 0 0.1 0 0 0 0.1 0 0.1-0.1v-3.5C42.5-6.9 42.4-7 42.2-7zM50.1-7h-3.5c0 0-0.1 0-0.1 0.1 0 0 0 0 0 0.1l3.6 3.7c0 0 0 0 0.1 0 0 0 0.1 0 0.1-0.1v-3.5C50.4-6.9 50.2-7 50.1-7zM110.9 15.4c-0.5-0.1-0.6-0.2-0.6-0.4v0c0-0.2 0.1-0.3 0.4-0.3 0.2 0 0.5 0.1 0.7 0.3l0.2-0.3c-0.3-0.2-0.5-0.3-0.9-0.3 -0.5 0-0.8 0.3-0.8 0.7v0c0 0.5 0.3 0.6 0.8 0.8 0.5 0.1 0.6 0.2 0.6 0.4v0c0 0.2-0.2 0.3-0.4 0.3 -0.3 0-0.5-0.1-0.8-0.3l-0.3 0.3c0.3 0.3 0.7 0.4 1 0.4 0.5 0 0.9-0.3 0.9-0.8v0C111.7 15.7 111.4 15.5 110.9 15.4zM113.5 15.5l-0.8-1.2h-0.5v2.5h0.4V15l0.8 1.2h0l0.8-1.2v1.8h0.4v-2.5h-0.5L113.5 15.5zM126.2-4.2c-2.8 0-4.7 2.3-4.7 5v0c0 3 2.1 5 5 5 1.7 0 3-0.7 3.9-1.8l-1.5-1.4c-0.7 0.7-1.4 1-2.3 1 -1.2 0-2.1-0.7-2.3-1.9h6.6c0-0.3 0-0.5 0-0.7C130.8-1.7 129.4-4.2 126.2-4.2zM124.1 0c0.2-1.2 0.9-2.1 2.1-2.1 1.1 0 1.8 0.8 2 2.1H124.1zM116.9 1.8l-1.8-5.9h-2.3L111 1.8l-1.5-5.9h-2.7l2.9 9.8h2.4l1.9-5.9 1.8 5.9h2.4l3-9.8h-2.7L116.9 1.8zM99.9 0.2c0-1.3 0.7-2 1.7-2 1 0 1.6 0.7 1.6 2v5.4h2.7v-6.3c0-2.2-1.2-3.6-3.2-3.6 -1.4 0-2.2 0.7-2.8 1.6v-4.9h-2.7V5.6h2.7V0.2zM137.3-7.6V5.6h2.7V-7.6H137.3zM75.6 5.8c3 0 5.2-2.3 5.2-5v0c0-2.8-2.2-5-5.1-5 -3 0-5.2 2.3-5.2 5v0C70.4 3.6 72.6 5.8 75.6 5.8zM73.1 0.8c0-1.4 0.9-2.6 2.5-2.6 1.5 0 2.5 1.2 2.5 2.7v0c0 1.4-0.9 2.6-2.5 2.6C74.1 3.5 73.1 2.2 73.1 0.8L73.1 0.8zM132.4 5.6h2.7V-7.6h-2.7V5.6zM104.2 14.3c-1.6 0-2.5 0.8-3.1 1.8v-5.5h-1.4v13.2h1.4v-5.4c0-1.8 1.2-2.9 2.8-2.9 1.6 0 2.5 1.1 2.5 2.8v5.5h1.4V18C107.7 15.8 106.4 14.3 104.2 14.3zM73.7 14.3c-2.5 0-4.4 2.2-4.4 4.9 0 2.9 2.1 4.9 4.6 4.9 1.7 0 2.9-0.7 3.8-1.8l-0.9-0.8c-0.7 0.8-1.6 1.3-2.9 1.3 -1.6 0-3-1.1-3.2-3.1H78c0-0.2 0-0.4 0-0.5C78 16.5 76.4 14.3 73.7 14.3zM70.7 18.6c0.2-1.8 1.4-3.1 3-3.1 1.8 0 2.8 1.4 2.9 3.1H70.7zM83.3 14.3c-1.4 0-2.3 0.3-3.3 0.8l0.4 1.1c0.9-0.4 1.7-0.7 2.8-0.7 1.7 0 2.7 0.9 2.7 2.5v0.3c-0.8-0.2-1.6-0.4-2.8-0.4 -2.3 0-3.9 1-3.9 3.1v0c0 1.9 1.7 2.9 3.4 2.9 1.6 0 2.7-0.8 3.3-1.6v1.4h1.4v-5.7c0-1.2-0.3-2.1-1-2.7C85.6 14.7 84.6 14.3 83.3 14.3zM85.9 20.4c0 1.5-1.4 2.5-3.1 2.5 -1.2 0-2.3-0.7-2.3-1.9v0c0-1.1 1-1.9 2.7-1.9 1.1 0 2 0.2 2.7 0.4V20.4zM66.5 16.8h-7.2v-5.6h-1.4v12.7h1.4v-5.7h7.2v5.7h1.4V11.2h-1.4V16.8zM84.9-2.1v-2h-2.7v9.7h2.7V2c0-2.3 1.1-3.4 2.9-3.4h0.1v-2.9C86.3-4.3 85.4-3.4 84.9-2.1zM66.3 0.8L60.5-7h-2.5V5.6h2.7v-8l6 8H69V-7h-2.7V0.8zM95.2 11.7h-1.4v2.8h-1.3v1.2h1.3v5.6c0 1.9 1.1 2.6 2.6 2.6 0.7 0 1.2-0.1 1.7-0.4v-1.2c-0.5 0.2-0.9 0.3-1.3 0.3 -0.9 0-1.5-0.4-1.5-1.6v-5.5h2.9v-1.2h-2.9V11.7zM95.4 5.2V3c-0.4 0.2-0.8 0.3-1.3 0.3 -0.6 0-0.9-0.3-0.9-0.9v-4.1h2.2v-2.4h-2.2v-2.5h-2.7v2.5h-1.1v2.4h1.1v4.6c0 2.2 1.1 2.9 2.8 2.9C94.2 5.8 94.8 5.6 95.4 5.2zM89.5 23.8h1.4V10.6h-1.4V23.8z"/></svg>
